<?xml version="1.0" standalone="no"?>
<!DOCTYPE svg PUBLIC "-//W3C//DTD SVG 20010904//EN"
 "http://www.w3.org/TR/2001/REC-SVG-20010904/DTD/svg10.dtd">
<svg version="1.0" xmlns="http://www.w3.org/2000/svg"
 width="1256.000000pt" height="1256.000000pt" viewBox="0 0 1256.000000 1256.000000"
 preserveAspectRatio="xMidYMid meet">
<metadata>
Created by potrace 1.14, written by Peter Selinger 2001-2017
</metadata>
<g transform="translate(0.000000,1256.000000) scale(0.100000,-0.100000)"
fill="#000000" stroke="none">
<path d="M6210 10389 c-8 -5 -76 -27 -150 -49 -74 -23 -144 -45 -155 -50 -18
-8 -222 -73 -235 -75 -3 -1 -66 -20 -140 -44 -74 -24 -135 -43 -135 -42 0 2
-31 -9 -70 -22 -38 -14 -144 -49 -235 -77 -178 -56 -444 -141 -525 -168 -27
-9 -52 -17 -55 -17 -3 0 -50 -15 -105 -33 -55 -17 -104 -32 -110 -33 -5 0 -18
-5 -28 -11 -10 -5 -26 -11 -35 -13 -10 -2 -74 -21 -142 -43 -481 -156 -576
-186 -585 -188 -9 -1 -330 -103 -460 -146 -33 -11 -67 -21 -75 -23 -8 -2 -41
-13 -72 -24 -32 -11 -58 -17 -58 -14 0 3 -6 0 -13 -6 -8 -6 -17 -8 -20 -4 -4
3 -7 0 -7 -7 0 -7 -3 -11 -6 -8 -3 4 -49 -8 -102 -26 -53 -18 -100 -34 -104
-35 -12 -3 -27 -7 -147 -46 -63 -21 -119 -38 -125 -39 -14 -3 -366 -115 -386
-123 -8 -3 -19 -5 -24 -4 -4 1 -13 -2 -20 -7 -9 -7 -50 -21 -76 -26 -3 -1 -18
-6 -35 -12 -16 -6 -46 -16 -65 -22 -94 -27 -307 -95 -325 -102 -11 -5 -54 -19
-95 -31 -41 -12 -127 -39 -190 -60 -63 -20 -182 -58 -265 -84 -82 -25 -166
-52 -185 -60 -19 -7 -39 -14 -45 -15 -5 -1 -14 -4 -20 -6 -5 -1 -55 -17 -110
-34 -55 -18 -107 -33 -115 -35 -8 -2 -53 -17 -100 -33 -47 -16 -87 -29 -90
-30 -3 0 -12 -3 -20 -6 -8 -2 -39 -12 -68 -21 -29 -9 -59 -23 -67 -32 -13 -13
-15 -270 -15 -2119 0 -1373 3 -2112 10 -2124 8 -15 41 -29 80 -35 3 0 11 -4
17 -8 7 -5 13 -6 13 -3 0 3 20 -3 45 -14 25 -11 47 -20 50 -20 3 0 6 0 8 -1 1
0 9 -2 17 -4 8 -2 80 -24 160 -50 80 -26 168 -54 195 -62 28 -8 57 -17 65 -20
8 -3 20 -7 25 -9 6 -1 24 -7 40 -13 47 -17 289 -95 300 -97 6 -1 69 -21 140
-44 72 -23 135 -43 140 -44 18 -4 279 -88 300 -96 29 -11 279 -90 287 -90 5 0
32 -9 60 -19 51 -19 342 -112 363 -117 6 -1 81 -25 167 -53 86 -29 165 -54
175 -56 10 -2 52 -16 93 -30 41 -14 83 -28 93 -30 9 -2 57 -17 105 -34 48 -16
107 -35 132 -42 55 -15 52 -14 70 -22 22 -8 149 -48 163 -51 7 -2 19 -6 27 -9
8 -3 40 -13 70 -22 30 -9 62 -20 70 -24 9 -5 31 -12 50 -17 43 -10 42 -9 60
-17 8 -3 96 -31 195 -62 99 -31 189 -61 200 -66 11 -5 29 -11 40 -12 11 -2 27
-7 35 -10 8 -3 89 -29 180 -57 91 -29 172 -55 180 -58 8 -3 18 -6 23 -7 4 -2
9 -4 12 -5 3 -1 8 -3 13 -4 5 -2 75 -23 132 -41 3 -1 12 -4 20 -7 8 -4 76 -25
150 -48 74 -23 160 -50 190 -60 61 -20 423 -135 455 -144 11 -3 22 -5 25 -4 3
1 15 -4 28 -11 13 -7 31 -14 40 -16 9 -2 42 -12 72 -23 30 -11 57 -19 60 -19
5 0 329 -103 518 -165 121 -39 145 -37 356 34 32 11 63 21 70 23 6 1 18 5 26
8 19 7 241 79 255 82 39 8 71 19 80 25 9 6 32 14 80 26 6 1 89 28 185 59 96
31 195 63 220 70 25 7 64 20 88 29 23 8 45 15 47 15 5 0 155 47 185 58 8 3 20
7 25 8 6 2 42 13 80 26 39 13 72 24 75 24 3 1 32 9 65 20 33 10 62 19 65 20 3
1 57 18 120 39 63 21 122 39 130 41 8 2 114 36 235 75 221 72 401 129 420 134
6 2 17 6 25 9 20 8 182 58 195 61 6 1 24 7 40 13 35 13 223 73 245 78 8 2 62
19 120 38 58 19 141 46 185 60 112 35 493 157 720 230 105 34 195 62 200 63 6
1 55 17 110 35 55 18 105 34 110 35 6 1 29 9 52 17 22 9 44 13 47 10 3 -4 6
-2 6 4 0 5 6 10 13 10 10 0 153 43 197 60 8 3 21 8 28 10 6 1 18 5 25 6 6 2
19 6 27 9 23 8 132 42 295 93 83 26 159 51 170 55 32 13 118 40 144 46 13 3
31 9 40 13 9 5 21 10 26 10 13 2 224 68 295 93 30 11 63 21 72 23 46 9 181 59
193 72 12 12 14 319 14 2123 l0 2110 -21 20 c-12 11 -28 20 -35 20 -7 0 -53
13 -101 29 -104 35 -441 142 -456 146 -6 1 -18 5 -26 8 -8 3 -67 22 -130 42
-63 20 -122 39 -130 42 -8 3 -20 7 -25 8 -6 1 -78 24 -160 51 -83 26 -152 48
-155 49 -16 3 -221 68 -253 80 -20 8 -39 15 -42 15 -3 0 -10 2 -17 5 -58 18
-246 77 -258 80 -8 2 -123 38 -255 80 -290 92 -264 84 -270 85 -3 1 -20 7 -40
16 -19 8 -37 14 -40 14 -3 0 -10 2 -17 5 -7 2 -58 18 -113 35 -55 17 -107 34
-115 37 -8 3 -20 7 -26 8 -6 2 -98 31 -205 65 -107 34 -237 75 -289 92 -52 16
-104 34 -115 39 -11 5 -29 11 -40 12 -11 2 -27 7 -35 10 -17 6 -92 31 -100 32
-15 3 -248 77 -265 84 -18 8 -132 44 -145 46 -9 2 -85 26 -105 35 -20 8 -104
34 -117 36 -5 1 -10 3 -13 4 -3 1 -8 3 -12 4 -5 1 -14 5 -20 9 -7 5 -13 6 -13
2 0 -3 -9 -1 -21 5 -11 6 -28 13 -37 15 -15 3 -242 75 -352 112 -25 8 -52 16
-60 18 -8 2 -98 30 -200 63 -186 60 -509 164 -715 229 -60 19 -128 41 -150 50
-22 8 -42 15 -45 15 -3 0 -9 2 -15 4 -5 1 -28 8 -50 14 -22 6 -49 15 -60 20
-19 8 -62 19 -78 19 -4 0 -21 8 -37 16 -17 9 -30 13 -30 9 0 -4 -7 -1 -15 6
-8 7 -15 10 -15 7 0 -3 -29 5 -65 18 -36 13 -65 21 -65 18 0 -3 -7 0 -15 7
-18 15 -143 22 -165 9z m174 -616 c28 -9 53 -18 56 -18 3 -1 52 -16 110 -35
58 -18 107 -34 110 -35 3 0 21 -6 40 -12 19 -6 143 -46 275 -88 132 -42 267
-85 300 -95 33 -11 123 -40 200 -64 332 -105 622 -198 645 -206 14 -5 68 -22
120 -38 209 -66 486 -154 500 -159 8 -3 24 -8 35 -10 11 -1 29 -7 40 -12 11
-6 67 -24 125 -42 58 -17 114 -35 125 -40 11 -4 40 -13 65 -20 25 -6 50 -14
55 -17 6 -4 15 -7 20 -8 6 -1 44 -13 85 -26 41 -14 98 -32 125 -41 28 -8 115
-36 195 -62 80 -26 150 -48 155 -49 13 -3 245 -76 265 -84 8 -3 17 -6 20 -7 3
-1 12 -4 20 -7 8 -3 60 -19 115 -36 225 -70 332 -104 368 -118 20 -7 37 -11
37 -9 0 3 10 0 23 -7 12 -6 27 -13 33 -14 12 -2 338 -105 424 -133 30 -10 109
-35 175 -56 66 -20 127 -39 135 -42 8 -3 21 -8 28 -10 6 -1 18 -5 25 -6 6 -2
25 -9 40 -15 16 -7 31 -12 34 -12 3 0 71 -21 152 -47 80 -26 148 -48 151 -48
3 -1 12 -4 20 -8 8 -3 41 -13 72 -21 32 -9 70 -27 85 -40 l27 -23 1 -1674 c1
-1440 -1 -1676 -13 -1691 -10 -13 -256 -101 -274 -98 -2 0 -50 -16 -108 -36
-58 -19 -112 -37 -120 -39 -28 -7 -304 -95 -346 -110 -23 -9 -50 -17 -61 -19
-10 -2 -53 -15 -94 -29 -68 -23 -324 -105 -514 -164 -44 -14 -105 -33 -135
-43 -67 -23 -413 -134 -420 -135 -3 -1 -63 -20 -135 -42 -137 -44 -177 -56
-185 -58 -3 -1 -12 -4 -20 -8 -26 -9 -430 -138 -448 -142 -9 -2 -64 -19 -122
-38 -58 -19 -199 -65 -315 -102 -115 -36 -315 -100 -444 -142 -129 -41 -239
-76 -245 -78 -6 -1 -18 -5 -26 -8 -26 -10 -285 -91 -287 -89 -2 1 -19 -6 -40
-14 -20 -9 -45 -17 -55 -19 -10 -2 -69 -20 -131 -40 -120 -39 -128 -42 -140
-44 -4 0 -23 -7 -42 -15 -20 -9 -36 -15 -38 -14 -2 1 -102 -30 -127 -39 -18
-7 -31 -11 -47 -14 -5 -1 -39 -13 -78 -26 -38 -14 -74 -26 -80 -27 -5 -1 -57
-17 -115 -36 -58 -18 -109 -34 -115 -36 -10 -2 -223 -70 -327 -104 -76 -24
-111 -20 -287 36 -80 25 -195 62 -256 81 -60 19 -118 38 -127 44 -10 5 -23 9
-30 9 -12 0 -243 72 -278 87 -8 3 -20 7 -26 8 -5 2 -71 22 -145 46 -74 24
-138 44 -144 45 -5 1 -88 28 -184 59 -96 32 -179 58 -185 59 -6 1 -99 31 -206
66 -107 35 -201 65 -208 66 -8 1 -21 6 -30 10 -9 4 -22 8 -29 10 -14 2 -140
43 -163 51 -8 3 -20 7 -27 9 -14 3 -141 43 -163 51 -8 4 -18 7 -22 8 -5 2 -10
4 -13 5 -6 3 -11 4 -50 14 -16 4 -39 11 -50 16 -11 5 -49 17 -85 28 -97 30
-476 151 -545 174 -33 11 -64 21 -70 22 -8 2 -46 14 -135 42 -8 3 -16 5 -18 5
-1 -1 -18 5 -37 13 -20 9 -38 15 -41 15 -2 -1 -17 3 -32 9 -15 5 -63 21 -107
35 -231 72 -383 120 -407 129 -15 6 -28 9 -30 8 -2 -1 -16 4 -33 10 -36 14
-213 70 -238 75 -9 2 -23 7 -30 12 -6 4 -19 9 -27 10 -8 1 -42 12 -75 23 -33
11 -67 22 -75 25 -19 5 -159 49 -225 70 -27 9 -54 17 -60 19 -5 1 -14 4 -20 7
-8 5 -39 15 -75 24 -3 0 -39 12 -80 25 -41 13 -77 25 -80 25 -3 1 -79 25 -170
54 -91 29 -214 69 -275 88 -60 19 -126 40 -145 46 -19 6 -37 11 -40 12 -3 0
-14 6 -24 12 -19 11 -20 41 -20 1682 -1 919 2 1684 7 1700 5 22 15 31 40 37
40 10 38 9 62 18 34 13 49 18 80 26 17 4 102 31 190 60 88 28 167 53 175 55 8
2 35 11 60 20 25 9 52 18 60 20 8 2 35 10 60 18 25 8 133 43 240 77 107 34
227 72 265 85 87 29 307 98 320 101 6 1 33 10 60 19 28 10 55 19 60 20 6 1 17
5 25 8 26 10 124 41 136 43 7 1 81 24 165 52 276 90 454 145 467 145 6 0 12 4
12 9 0 4 7 8 16 8 8 0 58 14 111 31 52 17 100 32 107 34 6 1 20 5 31 9 43 16
229 76 255 81 8 2 29 9 45 14 37 14 160 53 375 121 91 28 191 61 224 72 32 11
63 21 70 22 20 4 220 67 256 81 19 8 64 23 100 33 36 11 139 44 230 73 91 29
167 53 170 54 14 3 159 48 185 58 17 7 32 12 35 12 8 1 239 74 305 97 33 11
65 21 70 22 13 3 336 105 355 113 17 7 29 11 50 16 8 2 22 6 30 10 16 6 189
58 205 62 21 5 80 -5 129 -22z"/>
<path d="M4968 7775 c-2 -2 -21 -6 -43 -9 -42 -7 -76 -13 -110 -20 -92 -18
-303 -109 -312 -133 -3 -7 -9 -13 -15 -13 -9 0 -30 -21 -73 -71 -21 -25 -74
-122 -81 -149 -43 -161 -42 -131 -39 -1140 1 -525 5 -967 8 -982 38 -189 134
-320 292 -398 45 -22 93 -43 106 -45 13 -3 35 -9 49 -14 26 -10 94 -25 165
-38 52 -9 285 -10 352 -1 133 18 315 79 388 129 98 67 179 180 201 279 33 146
32 132 29 1115 -2 534 -6 984 -8 1000 -2 17 -9 43 -16 58 -6 16 -11 36 -11 46
0 9 -5 22 -10 27 -6 6 -21 29 -33 51 -44 80 -121 150 -222 201 -61 30 -163 68
-206 76 -13 2 -42 8 -64 14 -22 5 -47 11 -55 12 -35 3 -289 8 -292 5z m236
-420 c56 -24 110 -86 132 -153 18 -54 19 -105 18 -932 -1 -959 -1 -950 -60
-1014 -57 -60 -188 -96 -274 -74 -112 28 -167 85 -184 188 -7 46 -8 1746 -1
1785 12 63 68 155 95 155 6 0 10 4 10 10 0 13 56 41 94 47 17 3 32 6 34 8 8 8
102 -6 136 -20z"/>
<path d="M1704 7711 c-10 -2 -22 -8 -26 -15 -10 -15 -10 -2866 0 -2867 20 -4
489 -5 499 -1 8 2 10 59 8 205 -13 777 -17 1020 -20 1227 -2 129 -4 237 -5
240 -2 3 -1 10 0 15 2 11 3 77 0 85 0 3 -3 154 -5 335 -3 208 -1 324 5 314 5
-9 11 -31 14 -50 5 -35 17 -105 36 -199 6 -30 13 -68 16 -85 3 -16 14 -75 24
-130 11 -55 22 -113 25 -130 3 -16 8 -46 10 -65 3 -19 8 -44 12 -55 3 -11 7
-29 8 -41 2 -11 8 -45 14 -75 13 -61 18 -89 27 -139 6 -34 10 -52 18 -87 2
-10 7 -38 11 -63 4 -25 9 -54 12 -65 2 -11 6 -27 7 -35 1 -8 5 -31 9 -50 4
-19 9 -46 11 -60 3 -14 10 -50 16 -80 6 -30 13 -64 14 -75 2 -11 8 -45 14 -75
6 -30 14 -66 16 -80 3 -14 8 -36 11 -50 3 -14 7 -38 10 -55 2 -16 9 -55 15
-85 6 -30 13 -68 16 -85 8 -42 12 -60 14 -60 1 0 3 -13 5 -30 2 -16 6 -46 10
-65 4 -19 9 -44 11 -55 1 -11 5 -31 8 -45 3 -14 11 -52 17 -85 6 -33 13 -67
14 -75 2 -8 4 -25 4 -37 1 -13 10 -32 21 -43 18 -18 33 -20 183 -19 89 0 167
0 172 -1 6 -1 15 -1 20 0 6 1 31 2 56 1 63 -2 64 0 85 134 3 17 8 37 11 45 3
8 7 24 7 35 2 18 12 78 22 130 3 11 7 36 10 55 3 19 8 44 11 55 3 11 7 31 8
45 2 14 10 61 19 105 9 44 18 91 20 105 3 14 12 61 20 105 8 44 18 96 21 115
3 19 8 42 10 50 2 8 6 31 9 50 3 19 8 46 11 60 10 50 13 66 20 110 4 25 9 54
12 65 2 11 6 31 9 45 2 14 9 48 14 75 5 28 12 64 15 80 5 30 10 57 20 105 3
14 7 43 11 65 3 22 7 48 10 57 6 21 12 52 20 102 3 22 7 43 9 46 2 3 6 26 10
50 3 25 15 92 26 150 11 58 23 116 25 130 2 14 9 48 14 75 6 28 12 61 14 75 3
14 5 27 6 30 3 8 6 33 8 63 1 15 5 27 10 27 4 0 6 -46 5 -102 -8 -476 -23
-1187 -26 -1251 -1 -27 1 -51 6 -54 4 -2 4 -9 1 -15 -4 -6 -8 -81 -10 -167 -1
-86 -5 -312 -9 -503 l-6 -347 241 -3 c133 -2 244 0 246 4 3 4 11 5 19 1 8 -3
15 -1 16 3 4 36 3 2868 -1 2873 -6 9 -835 9 -844 1 -3 -3 -8 -21 -11 -40 -5
-34 -9 -54 -20 -115 -3 -16 -8 -46 -11 -65 -2 -19 -6 -46 -9 -60 -3 -14 -7
-36 -10 -50 -2 -14 -11 -68 -20 -120 -9 -52 -19 -111 -21 -130 -5 -40 -6 -44
-28 -161 -9 -47 -18 -99 -20 -115 -17 -107 -24 -152 -31 -184 -3 -14 -8 -38
-10 -55 -8 -60 -15 -101 -20 -125 -3 -14 -8 -42 -11 -64 -3 -21 -8 -48 -10
-60 -2 -11 -7 -37 -10 -56 -8 -52 -13 -82 -19 -110 -3 -14 -7 -41 -10 -60 -5
-36 -11 -68 -21 -117 -3 -16 -7 -41 -9 -58 -2 -16 -5 -39 -8 -50 -2 -11 -10
-57 -17 -102 -8 -46 -16 -80 -19 -77 -3 3 -6 9 -7 12 -1 15 -17 108 -21 127
-2 11 -10 58 -18 105 -17 107 -21 131 -35 205 -6 33 -13 79 -16 101 -2 23 -7
53 -10 65 -5 24 -28 162 -38 233 -4 21 -8 41 -10 45 -2 3 -6 29 -10 56 -3 28
-11 77 -17 110 -11 67 -12 72 -40 240 -11 66 -22 131 -24 144 -2 13 -7 45 -11
70 -4 25 -8 55 -11 66 -8 41 -38 222 -47 283 -5 37 -15 89 -22 112 -3 13 -57
15 -407 15 -222 0 -412 -2 -423 -4z"/>
<path d="M6080 7713 c-13 -3 -15 -166 -13 -1401 1 -768 2 -1417 2 -1442 l1
-45 253 1 c138 1 257 2 262 3 7 1 10 213 9 624 0 342 2 627 4 634 2 7 33 11
88 11 73 0 88 -3 104 -21 11 -11 21 -27 21 -34 2 -21 4 -27 16 -58 6 -16 34
-104 63 -195 81 -261 111 -354 117 -370 3 -8 7 -19 8 -25 2 -5 22 -71 46 -145
23 -74 44 -139 45 -145 1 -5 18 -59 39 -120 20 -60 37 -115 39 -121 7 -41 17
-42 296 -42 149 1 270 2 270 3 0 1 -7 18 -15 38 -8 19 -11 37 -8 41 4 3 0 6
-7 6 -7 0 -11 3 -7 6 3 3 -4 31 -15 62 -11 32 -21 62 -22 67 -2 6 -6 17 -9 25
-3 8 -33 101 -67 205 -34 105 -69 208 -77 230 -8 22 -16 47 -18 55 -4 19 -34
109 -44 135 -5 11 -42 121 -82 243 l-73 224 25 19 c13 10 28 19 32 19 5 0 33
12 63 27 104 51 182 151 199 258 4 22 8 119 10 215 2 96 4 180 5 185 1 6 1 12
0 15 -6 17 -5 80 3 80 4 0 5 5 2 10 -4 6 -8 81 -11 168 -6 234 -18 292 -77
383 -57 86 -165 145 -303 165 -40 6 -1147 12 -1174 7z m906 -426 c49 -12 86
-42 106 -87 13 -28 18 -520 6 -520 -4 0 -5 -7 -2 -15 7 -18 -29 -78 -59 -98
-38 -25 -106 -33 -276 -32 l-165 0 0 360 c-1 198 1 370 2 382 4 21 6 21 186
18 99 -2 191 -6 202 -8z"/>
<path d="M8472 7697 c-8 -10 -57 -238 -79 -372 -7 -42 -11 -60 -13 -60 -1 0
-3 -11 -5 -25 -4 -26 -8 -49 -26 -135 -5 -27 -12 -66 -15 -85 -3 -19 -9 -51
-14 -70 -5 -19 -11 -51 -14 -70 -3 -19 -8 -46 -11 -60 -9 -46 -15 -75 -30
-160 -9 -47 -19 -96 -22 -110 -3 -14 -8 -34 -10 -45 -2 -11 -7 -42 -13 -70 -5
-27 -11 -62 -14 -76 -2 -14 -14 -73 -25 -130 -30 -148 -31 -151 -36 -184 -3
-16 -8 -41 -10 -55 -8 -41 -12 -57 -45 -230 -18 -91 -34 -174 -36 -185 -2 -11
-8 -45 -14 -75 -6 -30 -12 -64 -14 -75 -8 -38 -55 -280 -61 -310 -2 -16 -7
-41 -10 -55 -3 -14 -7 -36 -10 -50 -3 -14 -7 -36 -10 -50 -3 -14 -7 -38 -10
-55 -3 -16 -8 -43 -11 -58 l-6 -29 54 2 c29 1 58 1 63 0 6 -1 14 -2 20 0 11 2
196 2 210 -1 6 -1 15 0 20 1 6 1 42 2 82 1 84 -2 85 -2 97 84 3 17 5 30 6 30
1 0 3 16 6 35 2 19 11 71 18 115 8 44 17 98 21 120 8 61 15 75 33 76 107 6
448 2 459 -6 14 -11 20 -32 28 -110 6 -50 12 -90 15 -90 1 0 3 -20 6 -44 2
-25 7 -56 9 -70 3 -14 8 -46 11 -71 8 -68 14 -71 120 -69 50 1 97 -2 103 -5 6
-4 11 -4 11 1 0 9 204 8 227 -1 7 -3 13 -2 13 3 0 5 18 6 40 4 31 -4 39 -2 36
9 -3 7 -7 29 -10 48 -3 19 -8 46 -11 60 -3 14 -9 50 -15 80 -6 30 -12 66 -15
80 -3 14 -9 50 -15 80 -6 30 -12 66 -15 80 -3 13 -7 42 -11 64 -3 22 -7 43 -9
46 -2 3 -6 23 -9 45 -4 22 -8 47 -11 55 -2 8 -6 31 -9 50 -3 19 -12 71 -20
115 -9 44 -18 91 -20 105 -3 14 -5 25 -6 25 -1 0 -3 11 -5 25 -2 14 -9 54 -15
90 -7 36 -14 74 -16 85 -4 26 -13 73 -21 110 -3 17 -8 40 -9 53 -5 31 -10 58
-24 127 -7 33 -13 69 -15 80 -1 11 -12 70 -23 130 -12 61 -24 124 -27 140 -3
17 -15 80 -26 140 -12 61 -22 121 -24 135 -1 14 -5 35 -9 47 -4 11 -9 36 -12
54 -6 44 -12 78 -19 109 -9 44 -26 134 -29 155 -2 11 -10 58 -19 105 -23 121
-29 152 -32 175 -2 11 -9 47 -15 80 -7 33 -13 65 -14 70 -5 32 -18 33 -310 34
-222 1 -296 -2 -304 -12z m315 -819 c9 -70 12 -94 17 -118 3 -14 8 -46 11 -72
3 -26 10 -78 15 -115 6 -37 13 -84 15 -103 6 -37 13 -89 20 -130 2 -14 6 -47
10 -75 12 -97 15 -119 19 -144 13 -81 20 -126 31 -206 5 -43 12 -83 21 -140
l5 -35 -183 2 c-155 3 -183 5 -180 18 2 8 5 28 8 45 2 16 9 57 14 90 5 33 12
78 15 100 3 22 7 51 10 64 2 13 7 49 11 80 3 31 8 59 10 62 2 3 6 30 9 60 3
30 10 77 15 104 5 28 12 68 15 90 3 23 7 50 9 60 2 11 7 43 10 70 8 59 16 109
22 139 4 20 10 65 19 131 2 17 4 31 6 33 1 2 5 16 8 29 3 15 14 -9 18 -39z"/>
<path d="M9490 7501 l0 -209 256 0 c140 0 258 -3 262 -6 3 -4 6 -559 6 -1234
l1 -1227 265 0 265 -1 5 1236 5 1235 255 0 c140 -1 257 2 260 6 4 6 5 376 1
402 0 4 -356 7 -791 7 l-790 0 0 -209z"/>
</g>
</svg>
