<svg width="157" height="103" viewBox="0 0 157 103" fill="none" xmlns="http://www.w3.org/2000/svg">
<g clip-path="url(#clip0_9_663)">
<path d="M156.986 51.4716C156.986 60.144 156.981 68.8117 157 77.4841C157 77.9711 156.849 78.1603 156.402 78.3021C143.275 82.4775 130.157 86.6671 117.035 90.852C106.098 94.3418 95.157 97.8315 84.2203 101.321C82.5576 101.851 80.9044 102.418 79.2276 102.901C78.7802 103.028 78.2291 103.043 77.7864 102.901C65.1446 98.8908 52.517 94.8572 39.8846 90.8237C26.8755 86.6719 13.871 82.5201 0.861888 78.3683C0.748847 78.3305 0.635806 78.2785 0.518054 78.2596C0.0941503 78.1981 -0.00476074 77.9569 -5.06951e-05 77.5455C0.0140794 73.0722 0.0093694 68.5989 0.0093694 64.1255C0.0093694 51.273 0.0093694 38.4252 -0.00476074 25.5727C-0.00476074 25.0478 0.155381 24.835 0.645226 24.6789C14.4268 20.3049 28.199 15.912 41.9759 11.5238C53.897 7.73138 65.8134 3.93425 77.7299 0.12767C78.2951 -0.0520193 78.8179 -0.0378332 79.3784 0.141856C95.694 5.35286 112.01 10.5591 128.325 15.7607C137.684 18.7445 147.038 21.7235 156.402 24.6931C156.845 24.835 157.005 25.0194 157 25.5112C156.981 34.1647 156.986 42.8181 156.986 51.4716ZM150.18 51.5378V31.1005C150.18 30.5394 149.907 30.1705 149.36 29.994C149.36 29.994 149.327 29.9798 149.313 29.9751C126.017 22.5558 102.717 15.1412 79.4255 7.71246C78.7849 7.50913 78.2197 7.50913 77.5838 7.71246C62.1631 12.635 46.7377 17.5387 31.3171 22.447C23.3759 24.9769 15.4395 27.5067 7.49834 30.0318C7.11683 30.1548 6.81539 30.2257 6.8201 30.7837C6.83894 44.5961 6.83894 58.4133 6.8201 72.2258C6.8201 72.6655 6.98024 72.8169 7.35233 72.9303C9.52366 73.6065 11.6903 74.3017 13.8616 74.992C35.1369 81.773 56.4122 88.5492 77.6827 95.3395C78.2527 95.5192 78.7661 95.5239 79.3313 95.3395C92.8774 91.0128 106.423 86.6955 119.97 82.3782C129.865 79.2242 139.756 76.0655 149.657 72.9209C150.076 72.7885 150.194 72.6041 150.194 72.1738C150.18 65.2935 150.185 58.4133 150.185 51.5284L150.18 51.5378Z" fill="white"/>
<path d="M50.7931 69.748H44.2367C44.4298 59.5577 44.6229 49.3863 44.816 39.2102C44.7784 39.2102 44.7454 39.2054 44.7077 39.2007C44.4251 40.7139 44.1425 42.2271 43.8599 43.7402C42.7059 49.9348 41.5567 56.1341 40.4074 62.3287C39.9788 64.6268 39.5408 66.9202 39.1404 69.2231C39.0698 69.6392 38.9097 69.748 38.5093 69.7432C36.8137 69.7243 35.1181 69.7149 33.4177 69.7432C32.9561 69.7527 32.7725 69.625 32.683 69.1569C31.6891 63.856 30.6765 58.5599 29.6685 53.2638C28.8066 48.7243 27.9399 44.1847 27.078 39.6499C27.0545 39.5223 27.0168 39.3946 26.9838 39.2669C26.9414 39.2669 26.899 39.2764 26.8566 39.2764C27.0215 49.4005 27.1816 59.5246 27.3465 69.6912H20.8843C20.8843 69.4737 20.8843 69.2704 20.8843 69.0718C20.8843 57.4581 20.8843 45.8492 20.8749 34.2356C20.8749 33.7202 20.9926 33.5736 21.5249 33.5783C24.7136 33.6067 27.8976 33.5925 31.0863 33.5925H31.6797C33.0692 41.9292 34.4492 50.2233 35.8293 58.5174C35.867 58.5174 35.9093 58.5174 35.947 58.5174C37.3506 50.2422 38.7542 41.967 40.1672 33.6634H50.7884V69.748H50.7931Z" fill="white"/>
<path d="M75.8459 33.602C75.9684 33.5878 76.0815 33.5547 76.1945 33.5547C80.6832 33.5547 85.1718 33.5452 89.6652 33.583C90.3906 33.5878 91.1348 33.7344 91.8366 33.933C94.055 34.5666 95.1524 36.1885 95.3503 38.3921C95.5057 40.0661 95.4774 41.7589 95.4821 43.4423C95.4821 45.0926 95.4821 46.7477 95.3691 48.3885C95.2466 50.1712 94.3564 51.4905 92.6844 52.2282C92.2322 52.4268 91.7942 52.6538 91.2996 52.8902C93.1507 58.489 94.997 64.0688 96.8716 69.729H96.2828C94.347 69.729 92.4112 69.7196 90.4754 69.7385C90.0797 69.7385 89.9196 69.6155 89.8018 69.2373C88.2428 64.2958 86.6555 59.3638 85.1012 54.4176C84.941 53.9022 84.7197 53.7036 84.178 53.7556C83.6175 53.8076 83.0523 53.7698 82.4353 53.7698V69.6912H75.8459V33.602ZM82.4541 38.7799V48.3129C83.8766 48.3129 85.266 48.3602 86.6461 48.2987C87.9225 48.2419 88.7138 47.5752 88.7656 46.4072C88.8551 44.4874 88.841 42.5628 88.7939 40.6382C88.7703 39.7161 88.2004 39.1014 87.2914 38.917C86.745 38.8035 86.1704 38.794 85.6099 38.7846C84.569 38.7657 83.528 38.7799 82.4494 38.7799H82.4541Z" fill="white"/>
<path d="M73.618 51.7695C73.618 55.3822 73.6463 58.995 73.5992 62.6029C73.5898 63.5345 73.4485 64.4944 73.1988 65.3928C72.6195 67.4545 71.2159 68.8684 69.2612 69.5919C65.5827 70.949 61.8288 70.9963 58.1644 69.6014C55.4278 68.5611 53.9206 66.4521 53.7275 63.4683C53.6804 62.7637 53.6427 62.0591 53.6427 61.3593C53.638 54.602 53.6286 47.84 53.6521 41.0827C53.6521 40.1985 53.7934 39.2953 53.996 38.4347C54.5047 36.3068 55.7952 34.77 57.8158 33.9519C61.631 32.4103 65.5026 32.3016 69.3131 33.9046C72.0637 35.0631 73.5285 37.2478 73.5662 40.2694C73.6133 44.1044 73.5757 47.9393 73.5757 51.7743C73.5898 51.7743 73.6039 51.7743 73.6227 51.7743L73.618 51.7695ZM60.3545 51.4953C60.3545 54.7817 60.3545 58.0634 60.3545 61.3498C60.3545 61.7943 60.3781 62.2436 60.4252 62.688C60.51 63.4825 60.7408 64.239 61.4473 64.6835C62.7002 65.4732 64.0472 65.5158 65.3707 64.8916C66.5812 64.3242 66.8968 63.2082 66.9015 61.9693C66.9203 56.0017 66.9439 50.0388 66.958 44.0713C66.958 43.0073 66.9675 41.9386 66.8921 40.8747C66.7461 38.7184 65.0599 37.4606 62.9733 37.8909C61.4284 38.2124 60.3593 39.5979 60.3545 41.3286C60.3451 44.7144 60.3545 48.1048 60.3545 51.4905V51.4953Z" fill="white"/>
<path d="M120.2 69.7338C119.649 69.7338 119.174 69.7338 118.698 69.7338C117.106 69.7338 115.509 69.7243 113.917 69.7385C113.573 69.7385 113.437 69.6345 113.39 69.2893C113.159 67.6579 112.895 66.0265 112.674 64.3951C112.627 64.0357 112.49 63.9459 112.151 63.9459C110.422 63.9601 108.689 63.9648 106.96 63.9459C106.56 63.9411 106.438 64.0877 106.381 64.4566C106.122 66.0832 105.839 67.7099 105.576 69.3366C105.533 69.5872 105.477 69.7432 105.175 69.7432C103.155 69.7338 101.134 69.7385 99.1088 69.7338C99.0429 69.7338 98.9816 69.7054 98.8733 69.6818C99.0994 68.509 99.3207 67.3505 99.5421 66.192C101.078 58.2525 102.608 50.3131 104.144 42.3737C104.676 39.6074 105.227 36.8506 105.75 34.0843C105.816 33.7391 105.938 33.6303 106.282 33.6351C108.543 33.6493 110.804 33.6445 113.065 33.6351C113.38 33.6351 113.517 33.7296 113.573 34.0512C115.043 42.0048 116.527 49.9537 118.006 57.9026C118.698 61.6335 119.395 65.3645 120.092 69.0907C120.125 69.2751 120.153 69.4595 120.2 69.7432V69.7338ZM111.878 58.2573C111.167 53.2922 110.465 48.4216 109.763 43.5464C109.697 43.5464 109.631 43.5464 109.56 43.5416C108.816 48.4358 108.067 53.33 107.318 58.2573H111.878Z" fill="white"/>
<path d="M131.881 69.7007H125.174V38.8461H118.623V33.6256H138.438V38.8082H131.881V69.7007Z" fill="white"/>
</g>
<defs>
<clipPath id="clip0_9_663">
<rect width="157" height="103" fill="white"/>
</clipPath>
</defs>
</svg>
