<svg width="32" height="31" viewBox="0 0 32 31" fill="none" xmlns="http://www.w3.org/2000/svg">
<path d="M2.42684 11.9732L0.982666 15.9884L5.92482 17.7608L2.19461 18.0357L2.51392 22.2896L7.75362 21.899L4.45887 23.6642L6.48361 27.4189L11.1137 24.9375L8.8277 27.8819L12.2096 30.4936L15.4245 26.3555L14.5391 29.98L18.6975 30.9928L19.9457 25.9069L20.6134 29.5748L24.8226 28.8152L23.8864 23.6642L25.991 26.7461L29.5252 24.3443L26.5643 20.0108L29.7429 21.9713L31.9927 18.3468L27.5222 15.5905L31.2234 16.0969L31.804 11.8719L26.5933 11.1629L30.1856 10.1211L28.9882 6.0264L23.9444 7.49501L26.7965 5.08591L24.0315 1.83037L20.0183 5.21613L21.6439 1.85931L17.7903 0.00726318L15.5043 4.72418L15.6204 0.998395L11.3459 0.868173L11.1863 6.10598L9.77112 2.6551L5.8087 4.26841L7.79716 9.11555L5.09749 6.53282L2.13656 9.61473L5.93208 13.2392L2.41233 11.9804L2.42684 11.9732ZM11.5274 12.6605L13.5521 11.8357L13.1457 10.8518L15.3301 10.9169L15.3664 9.85347L17.3331 10.8012L17.7976 9.839L19.2055 11.5029L20.0183 10.8157L20.6279 12.9064L21.6584 12.6098L21.3609 14.7657L22.4204 14.9104L21.2738 16.7625L22.1809 17.3268L20.3739 18.5494L20.9762 19.432L18.8281 19.8154L19.0168 20.8644L16.8977 20.3436L16.6437 21.3781L14.9165 20.0469L14.2633 20.8934L13.2328 18.9762L12.2894 19.4826L12.1297 17.3123L11.0629 17.3919L11.8032 15.3445L10.7944 14.9828L12.3039 13.4129L11.5346 12.6749L11.5274 12.6605Z" fill="white"/>
</svg>
