<svg width="32" height="31" viewBox="0 0 32 31" fill="none" xmlns="http://www.w3.org/2000/svg">
<path d="M0.290283 12.6966L8.05548 17.4859L1.25549 17.9923L1.57481 22.2462L10.6826 21.5734L5.47917 25.9648L8.24416 29.2203L15.2183 23.3386L13.6 29.9438L17.7584 30.9566L19.9283 22.1088L22.5118 28.4028L26.4743 26.7895L23.0126 18.3613L28.8111 21.9424L31.0608 18.3179L23.2956 13.5214L30.0956 13.015L29.7763 8.76104L20.6685 9.43386L25.8719 5.04249L23.1069 1.78695L16.1327 7.66863L17.7511 1.06349L13.5927 0.0506592L11.4228 8.8985L8.83926 2.60445L4.87683 4.21775L8.33851 12.646L2.54001 9.0649L0.290283 12.6894V12.6966ZM12.613 11.7923L11.8075 9.83176L15.3853 10.7071L15.886 8.65253L18.2664 11.4523L19.8847 10.085L20.1532 13.7456L22.2723 13.5865L20.3347 16.7046L22.1417 17.8187L18.7381 19.2077L19.5436 21.1683L15.9658 20.2929L15.4651 22.3475L13.0847 19.5477L11.4664 20.9151L11.1906 17.2544L9.07148 17.4136L11.0092 14.2955L9.20212 13.1813L12.6057 11.7923H12.613Z" fill="white"/>
</svg>
