<svg width="32" height="31" viewBox="0 0 32 31" fill="none" xmlns="http://www.w3.org/2000/svg">
<path d="M0.589398 11.9804L6.16292 15.8003L1.19175 15.207L0.683745 19.4392L7.39665 20.2423L2.72302 22.022L4.24702 26.0082L10.5608 23.6063L7.2515 27.3466L10.4592 30.1681L14.9369 25.1183L13.7467 29.9655L17.9051 30.9783L19.5089 24.4311L20.7136 29.271L24.8647 28.2437L23.2319 21.7036L26.5556 25.4294L29.7561 22.5935L25.2639 17.5583L29.9448 19.3162L31.4542 15.3228L25.126 12.9426L30.0899 12.3349L29.5674 8.10271L22.8545 8.92745L26.9693 6.08427L24.5309 2.57552L18.9719 6.41706L21.2869 1.99676L17.4987 0.0217285L14.3636 5.99746V1.00563H10.0745V7.74098L7.75225 3.32791L3.96399 5.31741L7.11362 11.2787L2.99153 8.44997L0.567627 11.966L0.589398 11.9804ZM11.7873 10.9386H14.3853V9.59302L16.6859 10.794L17.31 9.60749L18.7905 11.7417L19.8935 10.9821L20.2129 13.5576L21.5482 13.3912L20.6265 15.8147L21.882 16.285L19.9371 18.0068L20.8297 19.0052L18.3042 19.6273L18.6308 20.9295L16.1053 20.3146L15.786 21.6168L13.8338 19.9022L12.9484 20.9078L12.0195 18.4843L10.764 18.9618L11.076 16.3863L9.74072 16.2271L11.2139 14.0929L10.1036 13.3333L12.4041 12.1251L11.78 10.9386H11.7873Z" fill="white"/>
</svg>
