<svg width="33" height="33" viewBox="0 0 33 33" fill="none" xmlns="http://www.w3.org/2000/svg">
<path d="M16.4749 0.240034C19.5094 0.240034 22.5439 0.218239 25.5783 0.247299C27.1879 0.269094 28.7162 0.683198 29.9935 1.69303C31.3446 2.76099 32.2823 4.11228 32.489 5.83408C32.6366 7.04733 32.7548 8.26785 32.7695 9.48111C32.8212 14.4068 32.836 19.3397 32.8286 24.2654C32.8286 25.7402 32.6662 27.2077 31.9279 28.5445C30.7687 30.644 28.982 31.9227 26.5603 32.1334C24.6407 32.3005 22.7063 32.3005 20.7793 32.3077C16.534 32.3295 12.2886 32.3368 8.03593 32.3077C6.25658 32.2932 4.52154 32.0026 3.03014 30.9056C1.47229 29.7577 0.453405 28.2611 0.290976 26.3722C0.128546 24.5051 0.194992 22.6162 0.172842 20.7418C0.158076 19.5504 0.158084 18.3589 0.158084 17.1675C0.158084 14.029 0.135926 10.8905 0.172842 7.75204C0.194992 6.08109 0.512469 4.461 1.54611 3.08065C2.94892 1.19901 4.91284 0.305419 7.23115 0.254564C10.3099 0.189179 13.3961 0.240034 16.4749 0.240034ZM17.2575 23.3137C19.5168 23.3282 22.8687 22.529 25.8884 20.5457C26.1395 20.3786 26.42 20.1679 26.2059 19.8773C26.1099 19.7465 25.7039 19.7175 25.5045 19.7974C23.7768 20.5166 21.9901 20.9671 20.1443 21.2722C16.9769 21.7953 13.8539 21.5555 10.7603 20.7927C8.75947 20.2987 6.86939 19.5213 5.06051 18.5406C4.935 18.4752 4.75041 18.5188 4.59537 18.5115C4.64705 18.6641 4.65443 18.8529 4.7578 18.9547C5.02359 19.2235 5.31892 19.4632 5.62163 19.6884C8.67088 21.9624 12.0893 23.2119 17.2501 23.3137H17.2575ZM5.66593 11.8422C5.64378 11.3773 5.31892 11.3773 4.98667 11.4209C4.58798 11.479 4.74303 11.8059 4.73565 12.0239C4.7135 13.2952 4.73565 14.5666 4.7135 15.838C4.7135 16.2085 4.88331 16.2884 5.20817 16.2666C5.51827 16.2521 5.76191 16.2666 5.74714 15.8307C5.71761 14.9516 5.74714 14.0726 5.74714 13.1935C5.74714 12.6462 6.02278 12.3096 6.57405 12.1837C6.61835 12.1764 6.66265 12.1546 6.71433 12.1474C7.46004 12.0021 7.80704 12.2636 7.80704 13.0192C7.80704 13.9418 7.82181 14.8717 7.80704 15.7944C7.79966 16.1794 7.94733 16.2811 8.3091 16.2666C8.63396 16.2521 8.84069 16.223 8.82592 15.8017C8.79639 14.9226 8.81854 14.0435 8.81854 13.1645C8.81854 12.6414 9.07203 12.3169 9.57901 12.191C9.63807 12.1764 9.70452 12.1619 9.76359 12.1474C10.5462 11.9875 10.8711 12.2491 10.8784 13.0337C10.8784 13.9781 10.8932 14.9153 10.8784 15.8598C10.8784 16.223 11.063 16.2811 11.3584 16.2593C11.6168 16.2376 11.9121 16.3175 11.9047 15.8816C11.8899 14.7846 11.9121 13.6875 11.8899 12.5833C11.8752 11.755 11.3657 11.2392 10.5241 11.3046C9.88172 11.3555 9.25415 11.588 8.55275 11.7478C7.93995 11.0794 7.24592 11.0721 5.66593 11.8204V11.8422ZM16.2091 15.8234C16.2608 16.3247 16.5856 16.2884 16.8883 16.2593C17.2723 16.223 17.1541 15.9252 17.1541 15.7145C17.1615 14.4431 17.1468 13.1717 17.1615 11.9076C17.1615 11.508 17.0139 11.3991 16.6299 11.3991C16.2386 11.3991 16.1426 11.5516 16.15 11.9076C16.1722 12.8303 16.1648 13.7602 16.1574 14.6828C16.1574 14.8354 16.1574 15.017 16.0836 15.1333C15.9064 15.4239 14.8654 15.6927 14.4814 15.5328C14.0237 15.344 13.9941 14.9226 13.9941 14.5012C13.9941 13.6076 13.9941 12.714 13.9941 11.8204C13.9941 11.5298 13.8834 11.3773 13.5733 11.3991C13.3297 11.4209 12.9974 11.3192 12.9974 11.7042C12.9974 12.9392 13.0122 14.1816 13.0712 15.4166C13.0934 15.9179 13.4626 16.223 13.9572 16.332C14.7546 16.5064 15.4634 16.2666 16.1943 15.8162L16.2091 15.8234ZM18.077 15.3658C17.9072 15.8816 18.077 16.1794 18.5422 16.2448C19.0738 16.3175 19.6127 16.3683 20.1517 16.3465C20.8383 16.3247 21.4438 15.7508 21.5324 15.1333C21.6357 14.4358 21.3109 13.9345 20.5799 13.6439C20.2108 13.4986 19.8342 13.3679 19.4725 13.2008C19.1993 13.07 18.8597 12.8884 19.0147 12.5469C19.1107 12.3435 19.4282 12.1692 19.6718 12.1328C20.0262 12.082 20.3954 12.191 20.7571 12.1982C20.9269 12.1982 21.2149 12.1619 21.2444 12.0747C21.333 11.8132 21.2887 11.508 20.9343 11.4499C20.4544 11.37 19.9524 11.2828 19.4725 11.3191C18.4979 11.3991 18.018 11.973 18.077 12.8666C18.1213 13.4623 18.52 13.7747 19.0295 13.9927C19.406 14.1525 19.8195 14.2542 20.1665 14.4576C20.3511 14.5666 20.5356 14.8499 20.543 15.0606C20.5578 15.373 20.2994 15.5546 19.9671 15.5619C19.7161 15.5692 19.4577 15.591 19.2067 15.5619C18.8375 15.5183 18.4684 15.4311 18.0697 15.3585L18.077 15.3658ZM26.5677 16.4119C26.9221 16.3393 27.306 16.3175 27.6235 16.1649C27.7712 16.0923 27.7933 15.7581 27.8671 15.5401C27.7195 15.5111 27.5718 15.4457 27.4241 15.4529C27.2543 15.4529 27.0845 15.5256 26.9073 15.5401C26.0435 15.6273 25.4233 15.2277 25.3347 14.414C25.1427 12.7213 25.571 11.9149 27.4315 12.2563C27.557 12.2781 27.8154 12.1692 27.8302 12.0892C27.8597 11.864 27.9262 11.5734 27.5718 11.479C26.0804 11.0649 24.5299 11.4572 24.2789 13.3533C24.05 15.1042 24.8326 16.3974 26.5751 16.4119H26.5677ZM26.4126 22.2748C26.4126 22.2748 26.4865 22.3401 26.5234 22.3765C26.6711 22.2966 26.8409 22.2384 26.959 22.1222C27.9114 21.1777 28.3175 20.0008 28.384 18.6931C28.3987 18.3517 28.2437 18.17 27.9188 18.0901C26.612 17.7487 25.3716 17.923 24.1977 18.5696C24.0648 18.6423 23.991 18.8094 23.8876 18.9329C24.0426 18.9692 24.1977 19.0346 24.3527 19.0273C25.0984 19.02 25.8515 18.9619 26.5972 18.9765C27.114 18.9837 27.2617 19.1726 27.2026 19.6594C27.1657 19.9354 27.0919 20.2115 27.0107 20.4803C26.8261 21.0833 26.6194 21.679 26.42 22.282L26.4126 22.2748ZM23.3043 13.8764C23.3043 13.2008 23.2896 12.5251 23.3043 11.8568C23.3117 11.5371 23.201 11.3918 22.8687 11.4063C22.5808 11.4209 22.2855 11.3555 22.2928 11.8132C22.3076 13.1645 22.315 14.5085 22.2928 15.8598C22.2928 16.3102 22.5586 16.2593 22.854 16.2739C23.2083 16.2884 23.3265 16.1649 23.3117 15.8089C23.2822 15.1696 23.3043 14.523 23.3043 13.8837V13.8764ZM22.7137 9.47384C22.4257 9.47384 22.1895 9.69906 22.1968 10.0696C22.1968 10.4256 22.4774 10.6944 22.8392 10.6798C23.1936 10.6653 23.4594 10.3892 23.4446 10.0332C23.4298 9.6482 23.1936 9.48837 22.7137 9.47384Z" fill="white"/>
</svg>
