<svg width="33" height="33" viewBox="0 0 33 33" fill="none" xmlns="http://www.w3.org/2000/svg">
<path d="M25.8127 0.130859H6.83793C3.08728 0.130859 0.0454102 3.12404 0.0454102 6.81465V25.4857C0.0454102 29.1763 3.08728 32.1695 6.83793 32.1695H25.8127C29.5633 32.1695 32.6052 29.1763 32.6052 25.4857V6.81465C32.6052 3.12404 29.5633 0.130859 25.8127 0.130859ZM23.5239 9.22663C23.5239 10.8613 23.5239 12.5031 23.5239 14.1378H23.5091C23.5091 16.5788 23.5313 19.0198 23.4944 21.4609C23.487 22.0348 23.3098 22.6087 23.14 23.1682C23.0661 23.4152 22.8742 23.6549 22.6748 23.8365C21.5821 24.8464 20.2605 25.1152 18.8577 24.7229C17.8684 24.4468 17.3073 23.6694 17.1965 22.6669C17.0858 21.628 17.5066 20.7416 18.459 20.2767C19.19 19.9207 20.0169 19.7318 20.8217 19.5575C22.1506 19.2596 22.1875 19.2523 22.1875 17.9301C22.1875 15.8014 22.1875 13.6728 22.1802 11.5442C22.1802 10.8758 22.0547 10.7523 21.3902 10.883C18.6732 11.4134 15.9561 11.951 13.2391 12.4959C12.6854 12.6049 12.6116 12.7138 12.6116 13.3241C12.6116 16.6224 12.6116 19.928 12.5968 23.2263C12.5968 23.7276 12.5525 24.2361 12.4491 24.7301C12.2867 25.5147 11.8216 26.125 11.1054 26.5173C10.2711 26.975 9.35559 27.1421 8.41055 27.0331C7.40644 26.9169 6.56475 26.125 6.34326 25.1515C6.107 24.1199 6.48353 23.0156 7.41382 22.5288C8.10045 22.1728 8.89045 22.0058 9.63615 21.7805C9.92409 21.6934 10.2342 21.6643 10.5295 21.5989C11.0316 21.4827 11.2604 21.2139 11.2752 20.7053C11.29 20.2258 11.2752 19.7536 11.2752 19.2741C11.2752 15.8232 11.2678 12.3724 11.2605 8.9215C11.2605 8.04244 11.5632 7.68645 12.4344 7.51936C15.683 6.88004 18.9316 6.23345 22.1802 5.59413C22.3574 5.55781 22.5346 5.52875 22.7191 5.52875C23.2064 5.52148 23.5091 5.85567 23.5165 6.42234C23.5165 7.36679 23.5165 8.30398 23.5165 9.24843L23.5239 9.22663Z" fill="white"/>
</svg>
