<svg width="28" height="22" viewBox="0 0 28 22" fill="none" xmlns="http://www.w3.org/2000/svg">
<path d="M0.117119 7.73469C3.6011 9.99295 6.94288 12.173 10.3041 14.327C11.2025 14.9026 12.1355 15.3959 13.2623 15.5965C14.2125 15.767 15.0636 15.6266 15.8758 15.2896C16.6946 14.9487 17.4702 14.5014 18.2093 14.0281C21.439 11.9644 24.6494 9.87262 27.9739 7.72266C27.9739 8.08767 27.9739 8.36644 27.9739 8.64521C27.9739 12.0065 27.9739 15.3678 27.9739 18.7292C27.9739 20.3557 27.1013 21.2341 25.3669 21.3585C25.0932 21.3785 24.8153 21.3645 24.5395 21.3645C17.5241 21.3645 10.5109 21.3685 3.49553 21.3564C2.91164 21.3564 2.31266 21.2983 1.75031 21.1579C0.821676 20.9253 0.130048 20.103 0.125739 19.2225C0.106348 15.424 0.117119 11.6255 0.117119 7.73268V7.73469Z" fill="white"/>
<path d="M27.9736 3.38272C28.0641 4.26116 27.6762 5.02528 27.0643 5.66104C26.4934 6.25669 25.8577 6.82426 25.1575 7.28554C22.3953 9.10258 19.6008 10.8755 16.8128 12.6564C14.322 14.2488 13.583 14.2348 11.1031 12.6183C8.27193 10.7732 5.40632 8.97021 2.62042 7.06694C1.81676 6.51741 1.19407 5.7212 0.554158 4.99118C0.0241265 4.3855 0.0370557 3.61938 0.138322 2.89136C0.286989 1.82641 1.06696 1.14251 2.24337 0.988085C2.66998 0.931929 3.10736 0.923907 3.54043 0.923907C10.4825 0.919896 17.4268 0.919896 24.3689 0.923907C24.8408 0.923907 25.3126 0.984074 25.7845 0.986079C27.0342 0.996107 28.1826 2.18741 27.9757 3.38272H27.9736Z" fill="white"/>
</svg>
