<svg width="12" height="22" viewBox="0 0 12 22" fill="none" xmlns="http://www.w3.org/2000/svg">
<path d="M2.83856 16.2022C2.83856 14.6298 2.81917 13.0575 2.84718 11.4851C2.85795 10.9175 2.74591 10.6287 2.01981 10.6207C0.289669 10.6007 0.278894 10.5646 0.293976 8.99019C0.306904 7.54418 0.0138765 7.40178 1.84744 7.48C2.50028 7.50808 2.77392 7.28346 2.75884 6.66374C2.73729 5.75321 2.71574 4.83467 2.80624 3.93016C3.05833 1.40717 5.13966 0.233915 7.18007 0.362271C8.39526 0.438482 9.61045 0.52071 10.8278 0.598927C11.2975 0.62901 11.5539 0.771405 11.4268 1.29084C11.2609 1.96471 11.151 2.65462 11.0562 3.34253C10.9959 3.78175 10.7352 3.88403 10.3236 3.83189C9.93364 3.78175 9.54366 3.71155 9.15152 3.6935C7.83506 3.63534 7.25332 4.14275 7.23178 5.34007C7.19299 7.47398 7.193 7.46396 9.51996 7.47799C11.1208 7.48802 11.1812 7.23131 10.9075 8.96813C10.8838 9.11253 10.8752 9.25893 10.8644 9.40534C10.7653 10.6368 10.7653 10.6267 9.37345 10.6428C8.71198 10.6508 7.7575 10.4803 7.46448 10.8032C7.10035 11.2043 7.24255 12.0326 7.23824 12.6764C7.221 15.3458 7.23178 18.0152 7.22963 20.6866C7.22963 21.8498 7.22532 21.8498 5.92394 21.8538C5.17414 21.8538 4.42218 21.8177 3.67669 21.8639C2.98076 21.906 2.8127 21.6292 2.82563 21.0336C2.8601 19.4251 2.8364 17.8146 2.8364 16.2062L2.83856 16.2022Z" fill="white"/>
</svg>
