<svg width="33" height="33" viewBox="0 0 33 33" fill="none" xmlns="http://www.w3.org/2000/svg">
<path d="M17.4297 32.133H15.5396C15.4584 32.1185 15.3772 32.0821 15.296 32.0821C14.3805 32.0386 13.4871 31.886 12.6011 31.668C10.1499 31.065 7.95712 29.9608 6.0375 28.3407C4.26553 26.8514 2.87751 25.0714 1.89555 22.9936C0.60349 20.262 0.138339 17.3923 0.500115 14.3991C0.751143 12.2778 1.41563 10.2944 2.48619 8.44185C3.68227 6.37133 5.27702 4.65679 7.25572 3.29097C9.82506 1.52558 12.675 0.58113 15.8054 0.43583C17.57 0.355915 19.2977 0.559335 20.9958 1.05335C23.6538 1.82344 25.9647 3.17473 27.9212 5.10722C29.1321 6.29868 30.1214 7.64997 30.8893 9.16109C31.8417 11.0282 32.4102 12.997 32.5505 15.0821C32.5505 15.1692 32.5874 15.2637 32.6022 15.3509V17.2107C32.5579 17.5376 32.521 17.8646 32.484 18.1842C32.3438 19.4265 32.041 20.6398 31.5907 21.8094C30.4094 24.8753 28.4676 27.3672 25.7432 29.2488C23.3363 30.9197 20.6562 31.8642 17.7103 32.0749C17.6217 32.0749 17.5257 32.1112 17.4371 32.1257L17.4297 32.133ZM24.1854 15.8158C24.1558 15.6851 24.1337 15.5761 24.1189 15.4671C23.5947 12.4231 20.479 10.585 17.5036 11.5658C17.0384 11.7184 17.0311 11.7329 17.0311 12.2269C17.0311 15.0312 17.0311 17.8355 17.0311 20.647C17.0311 21.2064 17.0753 21.2428 17.6365 21.2428C20.1024 21.2428 22.561 21.2428 25.027 21.2428C25.1747 21.2428 25.3224 21.2428 25.47 21.2355C26.9319 21.1483 28.0763 20.0005 28.1427 18.562C28.2313 16.6658 26.4003 15.1983 24.4807 15.7504C24.3921 15.7722 24.3035 15.794 24.1927 15.8158H24.1854ZM16.8391 15.8449C16.8391 15.8449 16.8317 15.8449 16.8243 15.8449C16.7948 14.7115 16.7726 13.5782 16.7431 12.4449C16.7431 12.3722 16.7431 12.2996 16.7283 12.2269C16.6988 12.0671 16.5659 11.9654 16.4182 11.9654C16.2853 11.9654 16.1672 12.0598 16.1377 12.2124C16.1155 12.3141 16.1155 12.4158 16.1155 12.5175C16.1081 13.0842 16.1008 13.6509 16.0934 14.2175C16.0712 16.0992 15.9383 17.9881 16.0565 19.877C16.0786 20.2184 16.0934 20.5599 16.1229 20.8941C16.1451 21.1483 16.3518 21.2936 16.5512 21.2065C16.6914 21.1411 16.7357 21.0248 16.7431 20.8795C16.78 20.2547 16.8539 19.6227 16.8612 18.9979C16.876 17.9445 16.8539 16.8983 16.8465 15.8449H16.8391ZM15.8054 16.0701C15.8054 16.0701 15.8055 16.0701 15.8128 16.0701C15.7907 15.0312 15.7611 13.985 15.739 12.9462C15.739 12.6556 15.6283 12.5103 15.4437 12.5175C15.2591 12.5175 15.1631 12.6701 15.1631 12.9607C15.1557 13.2876 15.1483 13.6218 15.1483 13.9487C15.1188 15.9902 14.9933 18.0316 15.1114 20.0731C15.1262 20.371 15.1483 20.6688 15.1705 20.9667C15.1779 21.0902 15.2443 21.1919 15.3698 21.2137C15.4511 21.2282 15.5766 21.2137 15.6283 21.1629C15.6947 21.0975 15.7316 20.9885 15.739 20.8868C15.8054 19.8479 15.8867 18.809 15.8571 17.7628C15.8424 17.1962 15.8276 16.6295 15.8128 16.0628L15.8054 16.0701ZM14.7866 16.6513C14.7866 16.2154 14.7866 15.7868 14.7866 15.3509C14.7792 14.835 14.757 14.3192 14.7349 13.8034C14.7275 13.5782 14.6537 13.4838 14.4912 13.4765C14.314 13.4692 14.2328 13.5564 14.2033 13.8034C14.1885 13.9269 14.1811 14.0504 14.1811 14.1739C14.1516 15.2056 14.1368 16.2372 14.0999 17.2688C14.063 18.4167 14.1221 19.5573 14.1738 20.6979C14.1738 20.8214 14.1959 20.9449 14.2254 21.0611C14.255 21.1701 14.3436 21.2282 14.4617 21.2282C14.5946 21.2282 14.6758 21.1629 14.7127 21.0394C14.7275 20.9812 14.7275 20.9158 14.7349 20.8577C14.757 20.4945 14.7644 20.1385 14.8013 19.7752C14.9047 18.7364 14.8309 17.6902 14.7792 16.6513H14.7866ZM13.1696 16.1282C13.1401 17 13.0958 17.7919 13.1032 18.5838C13.1106 19.3466 13.177 20.1094 13.2213 20.865C13.2213 20.9158 13.2287 20.9667 13.2435 21.0176C13.273 21.1411 13.3468 21.221 13.4871 21.221C13.62 21.221 13.7012 21.1411 13.7234 21.0176C13.7382 20.9376 13.7529 20.8577 13.7603 20.7705C13.7824 20.4436 13.812 20.1094 13.8268 19.7825C13.8489 19.2376 13.8784 18.6928 13.8858 18.1479C13.8858 17.7556 13.8563 17.3633 13.8489 16.971C13.8194 15.9829 13.7972 14.9949 13.7677 14.0068C13.7677 13.8325 13.7455 13.6581 13.7234 13.4838C13.7086 13.3675 13.6274 13.3021 13.5093 13.2949C13.3911 13.2949 13.3026 13.3457 13.273 13.4547C13.2509 13.5419 13.2361 13.6363 13.2361 13.7308C13.2139 14.5517 13.1992 15.3799 13.1844 16.121L13.1696 16.1282ZM12.8522 16.368H12.8374C12.8079 15.4526 12.7857 14.5372 12.7562 13.6145C12.7562 13.5201 12.7562 13.4184 12.7193 13.3457C12.6824 13.2731 12.5938 13.2077 12.5199 13.1859C12.4166 13.1568 12.3427 13.2368 12.3132 13.3312C12.291 13.4184 12.2763 13.5128 12.2763 13.6073C12.232 14.9876 12.2024 16.368 12.1508 17.7483C12.1065 18.8017 12.2394 19.8479 12.2763 20.9013C12.2763 20.9594 12.291 21.0248 12.3132 21.0829C12.3501 21.1774 12.4239 21.2428 12.5273 21.221C12.6011 21.2064 12.6676 21.1483 12.7193 21.0902C12.7562 21.0466 12.7562 20.974 12.7636 20.9159C12.8079 20.2402 12.8817 19.5573 12.8891 18.8817C12.9038 18.0462 12.8669 17.2107 12.8522 16.3752V16.368ZM11.25 16.4116C11.25 16.4116 11.25 16.4116 11.2574 16.4116C11.2426 16.7821 11.2205 17.1526 11.2057 17.5231C11.1614 18.3513 11.2057 19.1723 11.2648 19.9932C11.2869 20.3201 11.3017 20.6543 11.3386 20.9812C11.3534 21.1483 11.4494 21.2355 11.5749 21.2137C11.7152 21.1919 11.7595 21.0975 11.7668 20.974C11.7668 20.9449 11.7668 20.9086 11.7668 20.8795C11.8038 20.4654 11.8481 20.0586 11.8702 19.6445C11.8997 19.0996 11.9219 18.5547 11.9219 18.0099C11.9219 17.6684 11.8924 17.3269 11.885 16.9928C11.8407 15.8885 11.8038 14.7915 11.7595 13.6872C11.7595 13.6363 11.7595 13.5855 11.7447 13.5346C11.7152 13.4402 11.6487 13.353 11.5453 13.3748C11.4789 13.3893 11.3977 13.4547 11.3681 13.5128C11.3312 13.5927 11.3312 13.6944 11.3312 13.7816C11.3017 14.6607 11.2796 15.5325 11.2574 16.4116H11.25ZM10.2828 16.891C10.1647 18.1261 10.2681 19.521 10.3788 20.9086C10.3788 20.9667 10.3788 21.0466 10.4157 21.0902C10.46 21.1483 10.5338 21.2065 10.6003 21.2137C10.6446 21.2137 10.7184 21.1411 10.748 21.0902C10.7849 21.0176 10.7923 20.9304 10.7997 20.8505C10.8513 20.2257 10.9326 19.5936 10.9399 18.9688C10.9399 17.8936 10.8882 16.8257 10.8587 15.7504C10.8439 15.3509 10.8292 14.944 10.8144 14.5444C10.807 14.3556 10.7849 14.1739 10.7701 13.9923C10.7627 13.8906 10.7111 13.8107 10.5929 13.8107C10.4748 13.8107 10.4305 13.8979 10.4083 13.9923C10.3862 14.0795 10.3936 14.1739 10.3862 14.2684C10.3567 15.0966 10.3271 15.9175 10.2976 16.8983L10.2828 16.891ZM10.017 18.5693C9.98012 17.7846 9.95059 17.1744 9.92105 16.5714C9.89152 16.0483 9.8546 15.5252 9.82507 14.9949C9.82507 14.9658 9.82507 14.9368 9.82507 14.9004C9.81769 14.7915 9.79553 14.6752 9.66264 14.668C9.52974 14.668 9.50021 14.7697 9.48545 14.8786C9.47807 14.9803 9.46329 15.0821 9.45591 15.1838C9.40423 16.2953 9.32301 17.4069 9.31563 18.5184C9.31563 19.3103 9.4116 20.1022 9.47067 20.8941C9.47067 20.9231 9.47807 20.9522 9.48545 20.9885C9.50021 21.0975 9.52236 21.2065 9.66264 21.1992C9.78077 21.1992 9.8103 21.0975 9.82507 21.003C9.83983 20.8941 9.8546 20.7778 9.86937 20.6688C9.89151 20.4654 9.90629 20.2547 9.92105 20.0513C9.96535 19.4992 10.0023 18.9398 10.0318 18.562L10.017 18.5693ZM8.7102 21.1919C8.85787 21.1556 8.85788 21.0394 8.86526 20.9231C8.92433 20.3056 8.99076 19.6953 9.03506 19.0778C9.05721 18.7945 9.05721 18.5039 9.03506 18.2133C9.00553 17.7193 8.94647 17.2325 8.90217 16.7385C8.88741 16.5859 8.87264 16.4333 8.83573 16.2808C8.82834 16.2299 8.74712 16.1573 8.71759 16.1645C8.65853 16.1718 8.60685 16.2372 8.56255 16.2808C8.54778 16.2953 8.54777 16.3389 8.54777 16.368C8.50347 17.3415 8.29675 18.3077 8.41488 19.2885C8.48133 19.8406 8.50347 20.4 8.54777 20.9522C8.55515 21.0611 8.58469 21.1556 8.7102 21.1847V21.1919ZM7.80945 15.9757C7.62487 16.0556 7.63964 16.1936 7.62487 16.3098C7.59534 16.5351 7.58059 16.7603 7.57321 16.9855C7.53629 17.712 7.39599 18.4385 7.48459 19.1723C7.52151 19.4701 7.53628 19.768 7.55843 20.0658C7.58058 20.3347 7.59535 20.6035 7.63226 20.865C7.64703 20.9667 7.63227 21.1265 7.77994 21.1338C7.93498 21.1338 7.91282 20.9812 7.92759 20.8723C7.92759 20.8505 7.92759 20.8287 7.92759 20.8069C7.95712 20.5017 7.99404 20.1894 8.02357 19.8842C8.06049 19.4629 8.1491 19.0415 8.12695 18.6201C8.09003 17.7992 7.98666 16.9782 7.91283 16.1573C7.91283 16.0919 7.84637 16.0265 7.80945 15.9684V15.9757ZM7.21142 18.5838C7.21142 18.5838 7.21142 18.5475 7.21142 18.5184C7.13759 17.7919 7.06376 17.0654 6.98254 16.3389C6.98254 16.288 6.98254 16.2299 6.96039 16.1863C6.93824 16.15 6.88657 16.0992 6.84965 16.0992C6.81273 16.0992 6.76104 16.15 6.74627 16.1936C6.72412 16.2517 6.73151 16.3171 6.72413 16.3752C6.68721 16.753 6.64292 17.1308 6.62077 17.5158C6.59124 17.9808 6.53956 18.4385 6.55433 18.9034C6.58386 19.5282 6.66506 20.153 6.72413 20.7778C6.72413 20.8069 6.72413 20.8432 6.73152 20.8723C6.76105 20.9304 6.80535 20.9812 6.84965 21.0321C6.89395 20.9812 6.93825 20.9376 6.96778 20.8795C6.98993 20.8505 6.97516 20.7996 6.98254 20.756C7.01946 20.4582 7.05638 20.1603 7.08592 19.8697C7.13022 19.4483 7.16712 19.027 7.21142 18.5838ZM5.89721 20.7124C5.95628 20.6761 6.00057 20.6616 6.00796 20.6398C6.10394 19.9787 6.26637 19.3103 6.26637 18.6492C6.26637 17.9445 6.10395 17.2398 6.01535 16.5351C6.01535 16.5133 5.97105 16.4987 5.9046 16.4551C5.58713 17.8863 5.57974 19.2812 5.9046 20.7124H5.89721ZM5.12199 17.2834C5.12199 17.2834 5.07769 17.2761 5.05554 17.2688C5.03339 17.3124 4.99647 17.3487 4.98171 17.3996C4.81928 18.1842 4.80451 18.9761 4.98171 19.7607C4.99647 19.8188 5.04817 19.8624 5.10723 19.9569C5.40994 19.0197 5.39517 18.1479 5.12199 17.2834Z" fill="white"/>
</svg>
