<svg width="33" height="33" viewBox="0 0 33 33" fill="none" xmlns="http://www.w3.org/2000/svg">
<path d="M15.149 0.0727539C15.8947 0.0727539 16.6331 0.0727539 17.3788 0.0727539C17.7627 0.123609 18.154 0.159934 18.5379 0.218054C21.7496 0.683013 24.5995 1.93986 27.036 4.06124C29.9892 6.63304 31.7907 9.84417 32.4035 13.6874C32.47 14.116 32.529 14.5446 32.5881 14.9733V17.1673C32.566 17.2545 32.5438 17.3489 32.529 17.4361C32.4552 17.981 32.4183 18.5331 32.3075 19.078C31.5102 23.0374 29.5093 26.2994 26.2607 28.7622C22.4141 31.6827 18.0506 32.7071 13.2737 31.8498C9.29418 31.1379 6.03082 29.1618 3.52792 26.0378C0.670635 22.4707 -0.436841 18.3951 0.153813 13.9053C0.567271 10.7668 1.86671 7.9916 3.98568 5.60868C6.60671 2.65909 9.89222 0.864638 13.8348 0.254379C14.2704 0.188994 14.7061 0.130874 15.149 0.0727539ZM13.7758 11.3916C14.551 11.4352 15.3189 11.4788 16.0941 11.5296C18.0654 11.6604 19.9998 12.0091 21.8677 12.6267C23.2632 13.0844 24.6217 13.6874 25.9875 14.2322C26.6963 14.5156 27.3091 14.2758 27.6561 13.5566C27.9441 12.9681 27.6931 12.2852 27.0581 11.9728C23.4256 10.2074 19.5937 9.19759 15.5551 8.96511C12.5797 8.79801 9.64119 9.07408 6.73222 9.72793C6.01605 9.88776 5.53615 10.5707 5.68381 11.3335C5.81671 12.0091 6.47381 12.3579 7.27119 12.1762C9.41231 11.6822 11.583 11.4279 13.7832 11.3843L13.7758 11.3916ZM25.5962 18.8964C25.5815 18.3878 25.3747 18.0827 24.9982 17.9156C23.9941 17.4797 22.9974 17.0147 21.9711 16.6369C19.3501 15.678 16.6183 15.2493 13.8275 15.2348C11.7602 15.2275 9.71502 15.4818 7.69942 15.9831C6.99063 16.1574 6.72484 16.4553 6.60671 17.2109C6.47381 18.0681 7.07923 18.613 7.94306 18.4314C8.90288 18.228 9.86269 17.9955 10.8299 17.8647C12.5059 17.6468 14.1818 17.6177 15.8726 17.7703C17.9325 17.9592 19.9186 18.4023 21.8382 19.1434C22.5913 19.434 23.3222 19.8045 24.0753 20.1096C24.282 20.1895 24.6069 20.2694 24.7546 20.1677C25.2271 19.8481 25.515 19.3686 25.5962 18.8891V18.8964ZM12.9562 21.1485C11.93 21.1485 10.1432 21.4246 8.37129 21.8895C7.89876 22.013 7.66989 22.2673 7.55914 22.6959C7.52222 22.8267 7.49269 22.9575 7.47054 23.0883C7.32288 23.8075 7.8397 24.287 8.57063 24.1271C9.53045 23.9165 10.4829 23.6912 11.4501 23.5314C12.9636 23.2917 14.4919 23.3062 16.0129 23.5024C18.1614 23.7784 20.1991 24.4032 22.1114 25.4131C22.1926 25.4566 22.2812 25.5002 22.3698 25.5366C22.9235 25.769 23.4994 25.4639 23.5289 24.8827C23.5437 24.5267 23.4551 24.1635 23.3591 23.822C23.3148 23.6767 23.1598 23.5242 23.0121 23.4442C20.1253 21.9186 17.0391 21.1485 12.9562 21.1485Z" fill="white"/>
</svg>
