<svg width="33" height="33" viewBox="0 0 33 33" fill="none" xmlns="http://www.w3.org/2000/svg">
<path d="M16.2507 0.420898C20.6585 0.486283 24.4091 1.91749 27.5248 4.84528C30.7144 7.83846 32.4125 11.5436 32.5528 15.8735C32.7005 20.4432 31.1131 24.4026 27.8349 27.6428C24.5347 30.9048 20.4887 32.474 15.8151 32.336C11.7249 32.2198 8.1514 30.745 5.19813 27.9625C1.70589 24.6714 0.00776489 20.6031 0.148045 15.8517C0.266176 11.8487 1.76495 8.35427 4.57056 5.44827C7.76009 2.13544 11.7249 0.508078 16.2507 0.428163V0.420898ZM16.3246 16.4329C16.391 16.3603 16.4206 16.324 16.4575 16.2876C17.4837 15.2778 18.51 14.268 19.5289 13.2581C19.5879 13.2 19.6175 13.2073 19.6692 13.2581C20.7028 14.2752 21.7291 15.2923 22.7627 16.3094C22.8218 16.3676 22.8587 16.3748 22.9178 16.3094C23.0949 16.1351 23.2721 15.968 23.4493 15.8009C23.8923 15.3577 24.3353 14.9146 24.7857 14.4787C25.177 14.0936 25.5757 13.7086 25.9744 13.3235C26.0999 13.2 26.0999 13.2 25.9744 13.0765C25.4354 12.5462 24.9038 12.0231 24.3648 11.4927C23.8849 11.0205 23.405 10.541 22.9325 10.0688C22.8661 10.0034 22.8218 10.0107 22.7553 10.0688C22.4748 10.3449 22.1942 10.6282 21.9136 10.9043C21.1679 11.638 20.4149 12.3718 19.6692 13.1128C19.6175 13.1637 19.5879 13.1855 19.5289 13.1274C19.1966 12.8004 18.857 12.4808 18.5248 12.1539C18.1777 11.8124 17.8307 11.4564 17.4837 11.115C17.1293 10.759 16.7676 10.4103 16.4132 10.0615C16.3615 10.0107 16.3172 10.018 16.2729 10.0615C16.1917 10.1487 16.1031 10.2359 16.0219 10.3231C15.2245 11.1077 14.4197 11.8996 13.6223 12.6842C13.4451 12.8586 13.2827 13.0329 13.135 13.1855C13.3418 13.4107 13.5411 13.6287 13.7552 13.8393C14.5895 14.6676 15.4238 15.4885 16.2655 16.3094C16.332 16.3748 16.332 16.4184 16.2655 16.4838C15.254 17.4718 14.2425 18.4671 13.2384 19.4624C13.1055 19.5932 13.1055 19.6077 13.2384 19.7313C13.6149 20.1018 13.9989 20.465 14.3754 20.8355C15.003 21.4531 15.6305 22.0706 16.2581 22.6881C16.3319 22.7608 16.3763 22.7825 16.4649 22.6954C16.7602 22.3975 17.0703 22.1069 17.373 21.8163C18.0892 21.1116 18.8053 20.4069 19.5215 19.7022C19.6175 19.6077 19.6101 19.586 19.5215 19.4988C19.2557 19.2445 18.9973 18.9902 18.7315 18.7359C17.9415 17.9731 17.1441 17.2103 16.3467 16.4402L16.3246 16.4329ZM13.076 13.2073C13.0464 13.1637 13.0243 13.1274 12.9948 13.0983C11.9759 12.0885 10.957 11.0859 9.93812 10.0761C9.87167 10.0107 9.82738 10.0107 9.76093 10.0761C9.5985 10.2432 9.43608 10.4103 9.26627 10.5774C8.41721 11.4128 7.56076 12.2483 6.70431 13.091C6.60833 13.1855 6.60833 13.2073 6.70431 13.3017C7.30973 13.8975 7.90775 14.4932 8.51317 15.0817C8.93401 15.4958 9.34748 15.9026 9.76832 16.3167C9.83477 16.3821 9.87905 16.3894 9.93812 16.3167C9.99718 16.2441 10.071 16.1787 10.1375 16.1133C11.0825 15.1834 12.0276 14.2534 12.9652 13.3308C13.0021 13.2945 13.0317 13.2581 13.0686 13.2146L13.076 13.2073Z" fill="white"/>
</svg>
