<svg width="45" height="33" viewBox="0 0 45 33" fill="none" xmlns="http://www.w3.org/2000/svg">
<path d="M44.507 9.10308V23.4805C44.4331 23.96 44.3815 24.4467 44.2707 24.9117C43.2371 29.4015 39.6415 32.3365 35.1303 32.3365C26.5806 32.3438 18.0235 32.3438 9.47381 32.3365C8.77241 32.3365 8.04886 32.2784 7.36961 32.1186C3.0283 31.0869 0.156246 27.4036 0.134096 22.8412C0.111947 18.4822 0.11933 14.1159 0.134096 9.75693C0.134096 8.07145 0.495872 6.46588 1.34494 5.01289C3.19073 1.86714 5.93727 0.261581 9.51811 0.254316C18.0383 0.232521 26.5659 0.254316 35.086 0.254316C35.3002 0.254316 35.5217 0.254316 35.7358 0.268846C39.3904 0.43594 42.6686 2.88424 43.8868 6.41503C44.1821 7.27956 44.3002 8.21675 44.4996 9.11761L44.507 9.10308ZM16.7315 16.3172C16.7315 18.257 16.7315 20.1895 16.7315 22.1292C16.7315 22.8993 17.0416 23.0882 17.7504 22.7613C21.7742 20.8724 25.798 18.9907 29.8071 17.0873C30.0433 16.9783 30.3534 16.6877 30.346 16.4916C30.346 16.2809 30.0433 16.0048 29.7997 15.8886C25.7906 13.8689 21.7742 11.871 17.7577 9.87317C17.0416 9.51718 16.7315 9.70607 16.7241 10.5125C16.7241 12.4522 16.7241 14.3847 16.7241 16.3245L16.7315 16.3172Z" fill="white"/>
</svg>
